<?xml version="1.0" encoding="utf-8"?>
<!-- Generator: Adobe Illustrator 25.3.1, SVG Export Plug-In . SVG Version: 6.00 Build 0)  -->
<svg version="1.2" baseProfile="tiny" id="Layer_1" xmlns="http://www.w3.org/2000/svg" xmlns:xlink="http://www.w3.org/1999/xlink"
	 x="0px" y="0px" viewBox="0 0 991.65 420.11" overflow="visible" xml:space="preserve">
<g>
	<g>
		<path d="M246.14,204.59c2.6-27.67,5.19-55.34,7.79-83.01c0.64-6.79,1.26-13.57,1.91-20.36c0.13-1.32,0.26-2.64,0.41-3.95
			c0.07-0.66,0.16-1.32,0.24-1.99c0.16-1.35-0.17,1.09,0.03-0.26c0.06-0.4,0.11-0.79,0.18-1.19c0.42-2.75,0.97-5.48,1.76-8.14
			c0.37-1.25,0.8-2.47,1.26-3.69c0.47-1.22-0.46,0.95,0.1-0.23c0.11-0.23,0.21-0.47,0.32-0.7c0.33-0.69,0.68-1.38,1.06-2.05
			c0.32-0.56,0.65-1.1,1-1.64c0.17-0.25,1.28-1.87,0.57-0.87c0.78-1.1,1.8-2.1,2.79-3.01c0.35-0.33,0.9-0.97,1.34-1.16
			c-0.93,0.4-0.39,0.29-0.04,0.03c0.24-0.17,0.47-0.34,0.71-0.5c1.06-0.72,2.16-1.36,3.31-1.93c0.21-0.1,0.42-0.2,0.63-0.3
			c0.3-0.14,1.32-0.42,0.08-0.06c0.55-0.16,1.09-0.43,1.63-0.63c1.22-0.43,2.47-0.79,3.73-1.09c1.17-0.28,2.34-0.48,3.53-0.68
			c0.91-0.15-0.12,0-0.25,0.03c0.35-0.08,0.73-0.09,1.09-0.13c0.73-0.08,1.46-0.14,2.19-0.19c2.54-0.17,5.09-0.17,7.63-0.06
			c2.61,0.11,5.22,0.35,7.82,0.67c0.31,0.04,0.61,0.08,0.92,0.12c1.22,0.15-0.83-0.12-0.05-0.01c0.6,0.09,1.21,0.17,1.81,0.26
			c1.44,0.22,2.87,0.45,4.3,0.7c2.93,0.51,5.85,1.1,8.72,1.86c1.36,0.36,2.71,0.76,4.04,1.21c0.66,0.22,1.32,0.46,1.98,0.71
			c0.39,0.15,0.78,0.31,1.17,0.46c-1.08-0.43,0.21,0.1,0.34,0.16c1.27,0.58,2.51,1.22,3.71,1.92c0.6,0.35,1.2,0.72,1.78,1.11
			c0.35,0.23,0.7,0.47,1.04,0.72c0.25,0.18,1.25,0.69,0.2,0.14c1,0.53,1.95,1.69,2.72,2.5c0.43,0.45,0.84,0.91,1.24,1.39
			c0.15,0.18,1.01,1.09,0.15,0.15c0.25,0.27,0.45,0.61,0.66,0.9c0.71,1.02,1.35,2.08,1.91,3.18c0.12,0.24,1.06,2.04,0.42,0.81
			c0.33,0.63,0.53,1.39,0.74,2.06c0.18,0.58,0.33,1.16,0.47,1.75c0.07,0.29,0.13,0.59,0.18,0.88c0.08,0.43,0.41,0.96,0.01-0.09
			c0.41,1.08,0.18,2.8,0.08,3.92c-0.01,0.16,0,0.54-0.07,0.71c0.45-1.15,0.03-0.32-0.05,0.09c-0.12,0.59-0.27,1.18-0.45,1.75
			c-0.14,0.45-0.93,1.94-0.16,0.57c-0.28,0.5-0.48,1.05-0.75,1.56c-0.46,0.85-0.97,1.67-1.52,2.46c-0.11,0.16-0.23,0.32-0.34,0.47
			c-0.31,0.42-0.82,0.64,0.07-0.08c-0.43,0.35-0.78,0.95-1.14,1.36c-5.6,6.37-13.15,10.98-17.65,18.32
			c-2.76,4.5-3.66,9.65-2.67,14.83c0.64,3.35,2.23,6.52,3.79,9.53c1.6,3.07,3.23,6.12,4.84,9.18c6.48,12.29,12.96,24.58,19.44,36.86
			c1.59,3.02,3.18,6.03,4.77,9.05c1.22,2.32,4.64,3.21,6.84,1.79c2.36-1.52,3.1-4.36,1.79-6.84c-6.67-12.66-13.35-25.31-20.02-37.97
			c-3.29-6.24-6.72-12.42-9.85-18.74c-0.33-0.67-0.66-1.35-0.96-2.05c0.35,0.83,0.05,0.11-0.01-0.06c-0.15-0.42-0.31-0.84-0.44-1.27
			c-0.23-0.71-0.38-1.43-0.55-2.16c-0.32-1.35-0.02,0.95-0.05-0.44c-0.01-0.34-0.04-0.68-0.04-1.02c0-0.47,0.04-0.93,0.07-1.4
			c0.06-1.03-0.24,1.25-0.03,0.24c0.04-0.18,0.07-0.35,0.1-0.53c0.1-0.48,0.23-0.95,0.38-1.42c0.07-0.21,0.14-0.42,0.22-0.63
			c0.41-1.11-0.2,0.36-0.05,0.09c0.46-0.83,0.84-1.67,1.36-2.47c0.25-0.38,0.52-0.75,0.78-1.13c0.56-0.81-0.63,0.75-0.19,0.24
			c0.21-0.25,0.41-0.51,0.62-0.76c1.31-1.56,2.77-3,4.26-4.39c3.18-2.97,6.56-5.73,9.53-8.92c3.36-3.61,6.32-7.84,7.51-12.7
			c1.5-6.09,0.37-12.31-2.3-17.89c-5.43-11.36-17.16-17.39-28.89-20.24c-5.9-1.43-11.97-2.35-18.01-3.02
			c-5.3-0.59-10.67-0.83-15.99-0.3c-5.69,0.57-11.21,1.84-16.32,4.49c-5.13,2.66-9.44,6.82-12.42,11.76
			c-6.46,10.71-6.74,24.03-7.88,36.13c-2.65,28.25-5.3,56.5-7.95,84.75c-0.33,3.47-0.65,6.94-0.98,10.41c-0.25,2.61,2.47,5.11,5,5
			C244.06,209.46,245.88,207.39,246.14,204.59L246.14,204.59z"/>
	</g>
	<g>
		<path d="M395.01,198.18c0.17-17.98,0.33-35.96,0.5-53.94s0.33-35.96,0.5-53.94c0.09-10.15,0.19-20.31,0.28-30.46
			c-1.67,1.67-3.33,3.33-5,5c26.06-0.65,52.12-1.3,78.17-1.95c7.3-0.18,14.61-0.37,21.91-0.55c2.61-0.07,5.12-2.25,5-5
			c-0.12-2.65-2.2-5.07-5-5c-26.06,0.65-52.12,1.3-78.17,1.95c-7.3,0.18-14.61,0.37-21.91,0.55c-2.72,0.07-4.97,2.24-5,5
			c-0.17,17.98-0.33,35.96-0.5,53.94s-0.33,35.96-0.5,53.94c-0.09,10.15-0.19,20.31-0.28,30.46c-0.02,2.62,2.32,5.12,5,5
			C392.74,203.06,394.99,200.98,395.01,198.18L395.01,198.18z"/>
	</g>
	<g>
		<path d="M677.05,196.1c8.13-18.8,16.81-37.36,26.06-55.64c9.21-18.21,18.97-36.14,29.25-53.76c5.82-9.96,11.81-19.82,17.96-29.58
			c-2.88,0-5.76,0-8.63,0c10.79,18.16,21.57,36.32,32.36,54.48c10.74,18.09,21.49,36.18,32.23,54.26
			c6.07,10.22,12.14,20.45,18.22,30.67c1.34,2.25,4.56,3.26,6.84,1.79c2.26-1.46,3.22-4.43,1.79-6.84
			c-10.79-18.16-21.57-36.32-32.36-54.48c-10.74-18.09-21.49-36.18-32.23-54.26c-6.07-10.22-12.14-20.45-18.22-30.67
			c-1.96-3.3-6.64-3.16-8.63,0c-10.92,17.33-21.32,34.98-31.18,52.94c-9.82,17.89-19.1,36.07-27.82,54.51
			c-4.93,10.43-9.69,20.94-14.26,31.53c-0.55,1.28-0.89,2.45-0.5,3.85c0.32,1.16,1.22,2.42,2.3,2.99
			C672.37,199.03,675.95,198.66,677.05,196.1L677.05,196.1z"/>
	</g>
	<g>
		<path d="M48.71,205.68c8.59-19.87,17.77-39.48,27.53-58.8c9.77-19.32,20.11-38.34,31.03-57.03c6.17-10.57,12.52-21.02,19.04-31.37
			c-2.88,0-5.76,0-8.63,0c11.39,19.17,22.77,38.35,34.16,57.52c11.43,19.24,22.86,38.49,34.29,57.73
			c6.42,10.8,12.83,21.61,19.25,32.41c1.34,2.25,4.56,3.26,6.84,1.79c2.26-1.46,3.22-4.43,1.79-6.84
			c-11.39-19.17-22.77-38.35-34.16-57.52c-11.43-19.24-22.86-38.49-34.29-57.73c-6.42-10.8-12.83-21.61-19.25-32.41
			c-1.96-3.3-6.64-3.16-8.63,0c-11.54,18.31-22.54,36.97-32.96,55.94c-10.42,18.97-20.27,38.26-29.52,57.83
			c-5.23,11.06-10.27,22.21-15.13,33.44c-0.55,1.28-0.89,2.45-0.5,3.85c0.32,1.16,1.22,2.42,2.3,2.99
			C44.02,208.61,47.6,208.24,48.71,205.68L48.71,205.68z"/>
	</g>
	<g>
		<path d="M925.53,59.75c-10.8-4.07-21.77-8.03-33.41-8.71c-9.49-0.55-19.44,1.59-27.38,6.98c-8.55,5.79-14.1,14.78-14.25,25.26
			c-0.15,10.89,5.21,21.13,12.91,28.56c7.93,7.66,17.86,12.48,27.93,16.65c2.59,1.07,5.19,2.1,7.8,3.13c1.3,0.52,2.6,1.03,3.9,1.56
			c0.58,0.23,1.15,0.47,1.73,0.71c0.36,0.15,0.72,0.3,1.08,0.45c0.33,0.14,0.29,0.12-0.12-0.05c0.14,0.06,0.29,0.12,0.43,0.18
			c4.65,2.01,9.22,4.19,13.55,6.84c0.98,0.6,1.94,1.22,2.89,1.87c0.5,0.34,1,0.69,1.49,1.05c0.22,0.16,0.43,0.32,0.65,0.48
			c0.16,0.12,0.32,0.24,0.48,0.36c-0.43-0.33-0.5-0.38-0.22-0.16c1.86,1.55,3.67,3.11,5.33,4.87c0.78,0.83,1.52,1.69,2.24,2.57
			c0.59,0.72,0.06,0.08-0.04-0.06c0.2,0.27,0.4,0.54,0.6,0.81c0.38,0.53,0.75,1.07,1.09,1.63c0.59,0.94,1.14,1.91,1.64,2.9
			c0.27,0.53,0.5,1.07,0.76,1.6c0.34,0.72-0.41-1.12,0.03,0.08c0.11,0.31,0.24,0.61,0.35,0.92c0.38,1.05,0.71,2.12,0.98,3.2
			c0.14,0.57,0.27,1.14,0.39,1.72c0.06,0.32,0.11,0.64,0.17,0.96c0.19,0.97-0.05-0.61,0.01,0.02c0.11,1.1,0.2,2.19,0.21,3.29
			c0,0.58-0.01,1.16-0.04,1.73c-0.02,0.32-0.04,0.64-0.07,0.96c-0.03,0.32,0.01,1.47,0,0.19c0.01,0.96-0.38,2.07-0.63,2.99
			c-0.17,0.61-0.37,1.22-0.59,1.82c-0.07,0.18-0.17,0.6-0.28,0.72c0.07-0.16,0.14-0.32,0.2-0.49c-0.1,0.23-0.21,0.47-0.33,0.7
			c-0.46,0.94-0.98,1.84-1.56,2.7c-0.13,0.19-0.26,0.38-0.4,0.57c-0.3,0.42-0.24,0.81,0.05-0.05c-0.14,0.42-0.82,0.98-1.12,1.3
			c-0.66,0.71-1.37,1.38-2.11,2.01c-0.17,0.15-0.35,0.29-0.53,0.44c-0.56,0.47,1-0.7,0.06-0.05c-0.47,0.32-0.94,0.66-1.42,0.97
			c-0.83,0.53-1.68,1.01-2.56,1.45c-0.4,0.2-1.08,0.37-1.42,0.67c0.09-0.08,1.08-0.43,0.23-0.1c-0.33,0.13-0.65,0.26-0.98,0.38
			c-2,0.73-4.06,1.26-6.16,1.61c-0.23,0.04-0.47,0.07-0.7,0.11c-0.93,0.15,0.18,0.01,0.27-0.03c-0.39,0.18-1.17,0.13-1.6,0.16
			c-1.12,0.09-2.25,0.13-3.38,0.12c-1.06-0.01-2.12-0.06-3.18-0.16c-0.28-0.03-1.64-0.19-0.61-0.05c-0.74-0.1-1.47-0.22-2.2-0.36
			c-2.62-0.49-5.2-1.19-7.72-2.04c-1.27-0.43-2.52-0.89-3.76-1.39c-0.28-0.11-0.55-0.22-0.83-0.34c0.19,0.08,0.85,0.37-0.04-0.02
			c-0.69-0.3-1.37-0.6-2.05-0.91c-2.45-1.13-4.86-2.35-7.24-3.61c-2.38-1.27-4.74-2.58-7.09-3.89c-2.28-1.28-5.56-0.62-6.84,1.79
			c-1.25,2.36-0.64,5.48,1.79,6.84c9.61,5.37,19.56,10.9,30.47,13.09c9.64,1.94,19.74,1.14,28.55-3.46
			c4.25-2.22,7.84-5.4,10.65-9.26c3.1-4.24,4.63-9.4,5.06-14.58c0.86-10.49-3.69-20.8-10.59-28.49
			c-6.7-7.46-15.65-12.65-24.72-16.68c-5.45-2.42-11.01-4.55-16.54-6.77c-1.23-0.49-2.45-1-3.67-1.5c0.79,0.33,0.05,0.02-0.09-0.04
			c-0.36-0.15-0.71-0.31-1.07-0.46c-0.71-0.31-1.42-0.62-2.13-0.95c-2.5-1.13-4.97-2.34-7.37-3.67c-2.2-1.22-4.34-2.54-6.4-3.98
			c-0.45-0.31-0.89-0.63-1.32-0.95c-0.22-0.16-0.43-0.33-0.65-0.49c0.8,0.6,0.21,0.16,0.05,0.03c-1.05-0.86-2.08-1.72-3.07-2.65
			c-0.84-0.78-1.65-1.59-2.43-2.44c-0.41-0.45-0.81-0.9-1.21-1.36c-0.17-0.21-0.35-0.41-0.52-0.62c-0.1-0.13-0.89-1.21-0.22-0.26
			c-1.44-2.02-2.77-4.06-3.82-6.31c-0.12-0.25-0.23-0.51-0.34-0.76c0.42,0.9,0.1,0.25,0.02,0.04c-0.24-0.65-0.49-1.29-0.7-1.95
			c-0.38-1.18-0.7-2.38-0.95-3.6c-0.05-0.27-0.11-0.54-0.15-0.81c0-0.03-0.19-1.36-0.09-0.56c0.08,0.69-0.01-0.19-0.03-0.36
			c-0.03-0.34-0.06-0.68-0.08-1.02c-0.07-1.23-0.07-2.46,0.02-3.68c0.02-0.27,0.05-0.54,0.07-0.81c0.11-1.31-0.16,0.71,0.01-0.09
			c0.13-0.6,0.22-1.21,0.36-1.8c0.24-0.98,0.48-2.51,1.08-3.35c-0.63,0.89-0.19,0.44-0.01,0.07c0.1-0.21,0.2-0.42,0.3-0.63
			c0.23-0.46,0.48-0.92,0.75-1.37c0.23-0.4,0.48-0.79,0.73-1.17c0.16-0.24,0.32-0.48,0.49-0.71c0.41-0.57,0.17-0.42-0.06,0.05
			c0.41-0.84,1.41-1.66,2.07-2.32c0.78-0.78,1.61-1.49,2.46-2.2c0.53-0.44-0.74,0.54-0.18,0.14c0.24-0.17,0.47-0.35,0.71-0.51
			c0.38-0.27,0.77-0.53,1.17-0.78c0.95-0.6,1.92-1.16,2.92-1.67c0.48-0.24,0.96-0.48,1.44-0.7c0.19-0.09,0.5-0.17,0.65-0.29
			c-0.66,0.5-0.61,0.24-0.2,0.09c1.12-0.42,2.24-0.83,3.39-1.18c0.92-0.27,1.85-0.51,2.78-0.72c0.58-0.13,1.17-0.24,1.76-0.35
			c0.24-0.04,0.47-0.08,0.71-0.12c1.04-0.17-1.04,0.1,0.09-0.02c2.45-0.25,4.9-0.34,7.36-0.23c1.31,0.06,2.61,0.17,3.92,0.32
			c0.25,0.03,1.26,0.17,0.28,0.03c0.31,0.04,0.61,0.09,0.91,0.14c0.76,0.12,1.52,0.25,2.28,0.4c5.51,1.05,10.88,2.73,16.15,4.6
			c2.65,0.94,5.28,1.92,7.9,2.92c2.45,0.92,5.59-1.03,6.15-3.49C929.67,63.06,928.16,60.74,925.53,59.75L925.53,59.75z"/>
	</g>
	<g>
		<path d="M514.36,76.88c-0.23,16.2-0.97,32.39-2.01,48.56c-1.04,16.28-2.37,32.53-3.75,48.78c-0.8,9.37-1.61,18.74-2.4,28.11
			c-0.18,2.08,1.67,4.37,3.67,4.82c2.34,0.53,4.26-0.43,5.65-2.3c0.9-1.21,1.05-3.09,1.21-4.51c0.12-1.02,0.14-1.97,0-2.99
			c-0.27-2-1.62-3.72-3.63-4.27c-2.66-0.73-5.49,0.94-6.2,3.58c-0.49,1.8-0.54,3.81-0.7,5.67c-0.36,4.19,5.81,6.78,8.54,3.54
			c4.51-5.37,8.95-10.87,13.01-16.59c0.72-1.01,1.48-2.04,2.02-3.17c0.49-1.01,0.85-1.91,0.85-3.06c-0.01-2.87-2.38-5.13-5.21-5.17
			c-4.48-0.07-7.91,5.02-10.36,8.16c-1.37,1.76-2.72,3.54-4.01,5.37c-2.04,2.88-4.17,6.02-4.66,9.59c-0.29,2.15,0.17,4.52,2.3,5.65
			c1.9,1,4.54,0.91,6.06-0.78c16.86-18.74,33.16-37.97,49.26-57.36c16.05-19.33,31.9-38.83,47.95-58.16
			c9.22-11.1,18.5-22.16,27.91-33.09c-2.85-1.18-5.69-2.36-8.54-3.54c-0.17,3.07-0.12,6.15-0.39,9.21
			c-0.03,0.38-0.07,0.76-0.11,1.15c-0.15,1.35,0.15-0.67-0.05,0.35c-0.14,0.72-0.26,1.43-0.45,2.14c-0.09,0.34-0.19,0.67-0.3,1
			c-0.4,1.2,0.04,0.07,0.02,0.05c0.03,0.02-0.43,0.86-0.49,0.98c-0.11,0.22-0.22,0.44-0.33,0.65c-0.29,0.5-0.16,0.34,0.39-0.46
			c0.74-0.43,1.47-0.86,2.21-1.29c-0.04,0.02-0.09,0.04-0.13,0.05c0.89,0,1.77,0,2.66,0c0.87,0.23,1.54,0.68,2.04,1.36
			c-0.08-0.13-0.16-0.26-0.23-0.4c-0.4-0.64,0.36,1.29,0.08,0.08c-0.04-0.16-0.08-0.33-0.11-0.49c-0.09-0.52-0.06-0.34,0.07,0.55
			c0.05-0.34-0.04-0.76-0.04-1.11c0.01-0.39,0.04-0.78,0.07-1.17c0.06-0.54,0.04-0.4-0.06,0.42c0.03-0.21,0.07-0.41,0.11-0.62
			c0.16-0.84,0.37-1.68,0.62-2.5c0.25-0.84,0.56-1.65,0.86-2.47c0.2-0.5,0.16-0.4-0.14,0.31c0.08-0.19,0.17-0.38,0.25-0.58
			c0.17-0.37,0.34-0.74,0.53-1.1c0.33-0.66,0.69-1.32,1.08-1.95c0.17-0.28,0.35-0.54,0.53-0.82c0.66-1.03-0.63,0.76-0.15,0.18
			c-2.85-1.18-5.69-2.36-8.54-3.54c-1.5,24.85-3,49.69-4.5,74.54c-0.42,6.96-0.84,13.91-1.26,20.87c-0.16,2.62,2.41,5.12,5,5
			c2.84-0.13,4.83-2.2,5-5c1.5-24.85,3-49.69,4.5-74.54c0.42-6.96,0.84-13.91,1.26-20.87c0.12-1.97-1.35-3.84-3.07-4.57
			c-1.69-0.71-4.21-0.5-5.46,1.03c-2.04,2.49-3.41,5.24-4.61,8.22c-1.2,2.99-2.09,6.32-2.02,9.56c0.04,1.9,0.42,3.68,1.26,5.39
			c1.26,2.55,4.06,4.82,7.06,3.79c2.81-0.96,3.96-3.72,4.95-6.28c0.64-1.67,0.95-3.42,1.18-5.18c0.53-3.98,0.48-7.96,0.71-11.96
			c0.24-4.19-5.74-6.79-8.54-3.54c-16.64,19.33-32.85,39.01-49.04,58.71c-15.95,19.41-31.88,38.84-48.17,57.97
			c-9.17,10.76-18.45,21.43-27.91,31.94c2.79,1.62,5.57,3.24,8.36,4.86c0.11-0.83,0.36-1.57,0.59-2.37
			c-0.26,0.88-0.14,0.3-0.01,0.05c0.2-0.37,0.38-0.75,0.58-1.11c0.69-1.22,1.5-2.38,2.31-3.53c0.69-0.99,1.41-1.96,2.13-2.92
			c0.27-0.36,0.54-0.72,0.81-1.07c0.57-0.75-0.64,0.81-0.23,0.3c0.14-0.17,0.27-0.35,0.41-0.52c0.66-0.83,1.32-1.65,2.02-2.46
			c0.53-0.61,1.06-1.21,1.63-1.79c0.27-0.27,0.55-0.52,0.82-0.78c0.11-0.1,0.25-0.19,0.35-0.3c-1.06,1.14-0.84,0.56-0.38,0.32
			c0.83-0.43-1.38,0.43-0.56,0.22c-2.66,0.67-5.85-1-5.87-4.67c0,0.43-0.35,0.82,0.16-1.19c-0.2,0.78,0.72-1.4,0.32-0.71
			c-0.11,0.19-0.21,0.39-0.32,0.58c-0.64,1.1-1.4,2.14-2.15,3.18c-0.47,0.65-0.94,1.29-1.42,1.92c-0.27,0.36-0.54,0.71-0.81,1.07
			c-0.27,0.35-1.36,1.74-0.29,0.39c-1.15,1.46-2.28,2.92-3.44,4.37c-1.65,2.06-3.29,4.12-4.99,6.14c2.85,1.18,5.69,2.36,8.54,3.54
			c0.09-1.03,0.21-2.07,0.31-3.1c0.06-0.61-0.24,1.17-0.09,0.7c0.03-0.09,0.02-0.2,0.05-0.3c0.26-0.69,0.11-0.03-0.39,0.8
			c-0.6,0.6-1.2,1.2-1.79,1.79c0.01,0,0.01-0.01,0.02-0.01c-1.28,0.17-2.57,0.34-3.85,0.5c0,0,0.01,0,0.01,0.01
			c-1-0.77-1.99-1.53-2.99-2.3c-0.43-0.73-0.64-1.51-0.64-2.35c0.01,0.05,0.01,0.11,0.01,0.16c-0.01,0.15,0.01,0.3,0,0.45
			c0,0.41-0.03,0.82-0.07,1.22c-0.05,0.57-0.39,1.06,0.08-0.5c-0.06,0.2-0.07,0.42-0.11,0.62c-0.04,0.17-0.11,0.35-0.14,0.52
			c-0.12,0.65,0.73-1.36,0.29-0.76c3.11,0.84,6.21,1.68,9.32,2.52c1.39-16.44,2.85-32.86,4.15-49.31
			c1.29-16.18,2.42-32.37,3.16-48.58c0.42-9.18,0.71-18.38,0.85-27.57c0.04-2.62-2.33-5.12-5-5C516.61,72,514.4,74.07,514.36,76.88
			L514.36,76.88z"/>
	</g>
	<g>
		<path d="M628.02,197.92c5.23,0,10.24-4.6,10-10c-0.24-5.42-4.39-10-10-10c-5.23,0-10.24,4.6-10,10
			C618.27,193.34,622.42,197.92,628.02,197.92L628.02,197.92z"/>
	</g>
</g>
<text transform="matrix(1 0 0 1 58.8598 328.8153)" font-family="'MyriadPro-Regular'" font-size="48px">T</text>
<text transform="matrix(1 0 0 1 133.2113 328.8153)" font-family="'MyriadPro-Regular'" font-size="48px">E</text>
<text transform="matrix(1 0 0 1 207.3232 328.8153)" font-family="'MyriadPro-Regular'" font-size="48px">C</text>
<text transform="matrix(1 0 0 1 285.6581 328.8153)" font-family="'MyriadPro-Regular'" font-size="48px">H</text>
<text transform="matrix(1 0 0 1 367.4501 328.8153)" font-family="'MyriadPro-Regular'" font-size="48px">N</text>
<text transform="matrix(1 0 0 1 449.5297 328.8153)" font-family="'MyriadPro-Regular'" font-size="48px">O</text>
<text transform="matrix(1 0 0 1 533.0975 328.8153)" font-family="'MyriadPro-Regular'" font-size="48px">L</text>
<text transform="matrix(1 0 0 1 604.3768 328.8153)" font-family="'MyriadPro-Regular'" font-size="48px">O</text>
<text transform="matrix(1 0 0 1 687.9452 328.8153)" font-family="'MyriadPro-Regular'" font-size="48px">G</text>
<text transform="matrix(1 0 0 1 769.4491 328.8153)" font-family="'MyriadPro-Regular'" font-size="48px">I</text>
<text transform="matrix(1 0 0 1 831.4169 328.8153)" font-family="'MyriadPro-Regular'" font-size="48px">E</text>
<text transform="matrix(1 0 0 1 905.5282 328.8153)" font-family="'MyriadPro-Regular'" font-size="48px">S</text>
<rect x="27.22" y="251.77" fill="none" stroke="#000000" stroke-width="4" stroke-miterlimit="10" width="938.29" height="114.19"/>
</svg>
