<?xml version="1.0" encoding="utf-8"?>
<!-- Generator: Adobe Illustrator 25.3.1, SVG Export Plug-In . SVG Version: 6.00 Build 0)  -->
<svg version="1.2" baseProfile="tiny" id="Layer_1" xmlns="http://www.w3.org/2000/svg" xmlns:xlink="http://www.w3.org/1999/xlink"
	 x="0px" y="0px" viewBox="0 0 991.65 420.11" overflow="visible" xml:space="preserve">
<g>
	<path d="M251.14,204.59c2.73-29.07,5.46-58.15,8.18-87.22c0.72-7.62,1.26-15.29,2.26-22.88c-0.12,0.89-0.24,1.77-0.36,2.66
		c0.67-4.96,1.67-9.89,3.59-14.53c-0.34,0.8-0.67,1.59-1.01,2.39c1.01-2.37,2.26-4.61,3.81-6.67c-0.52,0.67-1.04,1.35-1.56,2.02
		c1.36-1.75,2.91-3.32,4.64-4.69c-0.67,0.52-1.35,1.04-2.02,1.56c1.94-1.5,4.05-2.71,6.3-3.69c-0.8,0.34-1.59,0.67-2.39,1.01
		c3.18-1.34,6.52-2.16,9.93-2.63c-0.89,0.12-1.77,0.24-2.66,0.36c6.89-0.91,13.88-0.46,20.74,0.45c-0.89-0.12-1.77-0.24-2.66-0.36
		c7.78,1.06,15.67,2.41,22.96,5.45c-0.8-0.34-1.59-0.67-2.39-1.01c3.06,1.31,5.97,2.92,8.6,4.95c-0.67-0.52-1.35-1.04-2.02-1.56
		c1.85,1.46,3.5,3.13,4.96,4.98c-0.52-0.67-1.04-1.35-1.56-2.02c1.43,1.87,2.64,3.88,3.58,6.05c-0.34-0.8-0.67-1.59-1.01-2.39
		c0.8,1.91,1.37,3.88,1.67,5.92c-0.12-0.89-0.24-1.77-0.36-2.66c0.23,1.79,0.25,3.56,0.01,5.35c0.12-0.89,0.24-1.77,0.36-2.66
		c-0.23,1.49-0.62,2.92-1.18,4.32c0.34-0.8,0.67-1.59,1.01-2.39c-0.83,1.97-1.96,3.77-3.26,5.46c0.52-0.67,1.04-1.35,1.56-2.02
		c-3.38,4.29-7.68,7.69-11.65,11.4c-4.8,4.48-9.2,9.74-11.01,16.18c-1.23,4.38-1.14,9.18,0.09,13.55c1.32,4.69,3.84,9.03,6.1,13.31
		c4.23,8.02,8.46,16.04,12.69,24.06c4.73,8.98,9.47,17.95,14.2,26.93c2.44,4.63,9.28,6.43,13.68,3.59c4.72-3.04,6.2-8.72,3.59-13.68
		c-8.15-15.45-16.29-30.9-24.44-46.36c-2.23-4.23-4.69-8.41-6.57-12.82c0.34,0.8,0.67,1.59,1.01,2.39
		c-0.68-1.66-1.21-3.35-1.47-5.14c0.12,0.89,0.24,1.77,0.36,2.66c-0.15-1.29-0.16-2.57,0-3.86c-0.12,0.89-0.24,1.77-0.36,2.66
		c0.19-1.34,0.56-2.61,1.08-3.86c-0.34,0.8-0.67,1.59-1.01,2.39c0.69-1.58,1.59-3.03,2.63-4.4c-0.52,0.67-1.04,1.35-1.56,2.02
		c4.12-5.32,9.75-9.21,14.36-14.07c2.72-2.87,5.4-6.12,7.03-9.76c0.65-1.44,1.31-2.91,1.78-4.42c0.56-1.78,0.77-3.62,0.99-5.47
		c0.34-2.78,0.03-5.42-0.39-8.18c-0.38-2.44-1.19-4.67-2.15-6.94c-0.94-2.24-2-4.36-3.41-6.34c-3.44-4.8-7.51-8.72-12.59-11.77
		c-8.7-5.24-18.83-7.37-28.75-8.84c-4.87-0.72-9.77-1.35-14.7-1.52c-4.91-0.17-9.77,0.22-14.61,1.03c-4.66,0.78-9.24,2.38-13.4,4.63
		c-4.91,2.66-8.84,6.48-12.14,10.92c-6.24,8.38-7.93,19.17-9.04,29.27c-1.18,10.68-2.04,21.4-3.04,32.1
		c-2.08,22.22-4.17,44.44-6.25,66.66c-0.26,2.73-0.51,5.45-0.77,8.18c-0.23,2.41,1.28,5.42,2.93,7.07c1.73,1.73,4.58,3.04,7.07,2.93
		c2.59-0.12,5.27-0.97,7.07-2.93C250.1,209.6,250.88,207.37,251.14,204.59L251.14,204.59z"/>
</g>
<g>
	<path d="M400.01,198.18c0.17-17.98,0.33-35.96,0.5-53.94s0.33-35.96,0.5-53.94c0.09-10.15,0.19-20.31,0.28-30.46
		c-3.33,3.33-6.67,6.67-10,10c26.06-0.65,52.12-1.3,78.17-1.95c7.3-0.18,14.61-0.37,21.91-0.55c2.6-0.07,5.21-1.07,7.07-2.93
		c1.73-1.73,3.04-4.58,2.93-7.07c-0.24-5.31-4.4-10.14-10-10c-26.06,0.65-52.12,1.3-78.17,1.95c-7.3,0.18-14.61,0.37-21.91,0.55
		c-5.44,0.14-9.95,4.47-10,10c-0.17,17.98-0.33,35.96-0.5,53.94s-0.33,35.96-0.5,53.94c-0.09,10.15-0.19,20.31-0.28,30.46
		c-0.05,5.23,4.63,10.24,10,10C395.47,207.93,399.96,203.79,400.01,198.18L400.01,198.18z"/>
</g>
<g>
	<path d="M681.37,198.62c8.13-18.8,16.81-37.36,26.06-55.64c9.21-18.21,18.97-36.14,29.25-53.76c5.82-9.96,11.81-19.82,17.96-29.58
		c-5.76,0-11.51,0-17.27,0c10.79,18.16,21.57,36.32,32.36,54.48c10.74,18.09,21.49,36.18,32.23,54.26
		c6.07,10.22,12.14,20.45,18.22,30.67c1.29,2.17,3.54,3.92,5.98,4.6c2.39,0.66,5.58,0.36,7.71-1.01c4.53-2.92,6.45-8.87,3.59-13.68
		c-10.79-18.16-21.57-36.32-32.36-54.48c-10.74-18.09-21.49-36.18-32.23-54.26c-6.07-10.22-12.14-20.45-18.22-30.67
		c-3.92-6.61-13.28-6.33-17.27,0c-10.92,17.33-21.32,34.98-31.18,52.94c-9.82,17.89-19.1,36.07-27.82,54.51
		c-4.93,10.43-9.69,20.94-14.26,31.53c-1.11,2.57-1.78,4.89-1.01,7.71c0.64,2.32,2.43,4.83,4.6,5.98c2.32,1.23,5.13,1.84,7.71,1.01
		C677.7,202.47,680.36,200.95,681.37,198.62L681.37,198.62z"/>
</g>
<g>
	<path d="M53.02,208.2c8.59-19.87,17.77-39.48,27.53-58.8c9.77-19.32,20.11-38.34,31.03-57.03c6.17-10.57,12.52-21.02,19.04-31.37
		c-5.76,0-11.51,0-17.27,0c11.39,19.17,22.77,38.35,34.16,57.52c11.43,19.24,22.86,38.49,34.29,57.73
		c6.42,10.8,12.83,21.61,19.25,32.41c1.29,2.17,3.54,3.92,5.98,4.6c2.39,0.66,5.58,0.36,7.71-1.01c4.53-2.92,6.45-8.87,3.59-13.68
		c-11.39-19.17-22.77-38.35-34.16-57.52c-11.43-19.24-22.86-38.49-34.29-57.73c-6.42-10.8-12.83-21.61-19.25-32.41
		c-3.92-6.61-13.28-6.33-17.27,0c-11.54,18.31-22.54,36.97-32.96,55.94c-10.42,18.97-20.27,38.26-29.52,57.83
		c-5.23,11.06-10.27,22.21-15.13,33.44c-1.11,2.57-1.78,4.89-1.01,7.71c0.64,2.32,2.43,4.83,4.6,5.98c2.32,1.23,5.13,1.84,7.71,1.01
		C49.35,212.05,52.02,210.53,53.02,208.2L53.02,208.2z"/>
</g>
<g>
	<path d="M926.86,54.93c-11.93-4.5-24.14-8.79-37.05-8.97c-11.77-0.17-23.27,3.7-32.27,11.31c-4.55,3.85-7.74,8.85-9.92,14.34
		c-2.53,6.36-2.52,13.42-1.27,20.05c2.4,12.74,11.25,22.85,21.47,30.21c11.22,8.09,24.71,12.25,37.33,17.56
		c-0.8-0.34-1.59-0.67-2.39-1.01c7.12,3.01,14.08,6.48,20.23,11.22c-0.67-0.52-1.35-1.04-2.02-1.56c3.17,2.48,6.06,5.27,8.53,8.45
		c-0.52-0.67-1.04-1.35-1.56-2.02c1.84,2.42,3.37,5.01,4.57,7.81c-0.34-0.8-0.67-1.59-1.01-2.39c1.11,2.67,1.89,5.44,2.31,8.3
		c-0.12-0.89-0.24-1.77-0.36-2.66c0.34,2.56,0.38,5.14,0.05,7.71c0.12-0.89,0.24-1.77,0.36-2.66c-0.3,2.16-0.86,4.25-1.7,6.26
		c0.34-0.8,0.67-1.59,1.01-2.39c-0.78,1.79-1.76,3.46-2.95,5.01c0.52-0.67,1.04-1.35,1.56-2.02c-1.28,1.62-2.75,3.06-4.38,4.33
		c0.67-0.52,1.35-1.04,2.02-1.56c-1.94,1.47-4.04,2.67-6.27,3.63c0.8-0.34,1.59-0.67,2.39-1.01c-2.95,1.24-6.03,2.04-9.2,2.47
		c0.89-0.12,1.77-0.24,2.66-0.36c-3.33,0.42-6.67,0.41-10-0.01c0.89,0.12,1.77,0.24,2.66,0.36c-5.31-0.72-10.43-2.31-15.37-4.36
		c0.8,0.34,1.59,0.67,2.39,1.01c-5.94-2.51-11.58-5.63-17.2-8.77c-2.29-1.28-5.15-1.71-7.71-1.01c-2.32,0.64-4.83,2.43-5.98,4.6
		c-2.49,4.72-1.29,10.96,3.59,13.68c10.93,6.11,22.39,12.39,34.96,14.14c6.32,0.88,12.37,0.83,18.64-0.58
		c5.15-1.16,10.31-3.34,14.53-6.52c3.16-2.38,5.57-4.77,7.96-7.92c1.95-2.57,3.27-5.45,4.38-8.47c2.32-6.28,2.2-13.27,0.96-19.76
		c-2.44-12.8-11.23-22.93-21.53-30.32c-11.23-8.07-24.66-12.25-37.29-17.55c0.8,0.34,1.59,0.67,2.39,1.01
		c-7.08-2.99-14.01-6.41-20.13-11.11c0.67,0.52,1.35,1.04,2.02,1.56c-3.2-2.5-6.12-5.31-8.62-8.52c0.52,0.67,1.04,1.35,1.56,2.02
		c-1.83-2.41-3.37-4.99-4.58-7.77c0.34,0.8,0.67,1.59,1.01,2.39c-1.12-2.69-1.91-5.47-2.31-8.36c0.12,0.89,0.24,1.77,0.36,2.66
		c-0.31-2.45-0.32-4.9,0-7.35c-0.12,0.89-0.24,1.77-0.36,2.66c0.31-2.1,0.86-4.12,1.67-6.08c-0.34,0.8-0.67,1.59-1.01,2.39
		c0.83-1.92,1.88-3.7,3.15-5.36c-0.52,0.67-1.04,1.35-1.56,2.02c1.5-1.92,3.23-3.62,5.15-5.11c-0.67,0.52-1.35,1.04-2.02,1.56
		c2.36-1.79,4.92-3.25,7.64-4.41c-0.8,0.34-1.59,0.67-2.39,1.01c3.21-1.34,6.57-2.24,10.01-2.73c-0.89,0.12-1.77,0.24-2.66,0.36
		c4.37-0.58,8.78-0.43,13.14,0.14c-0.89-0.12-1.77-0.24-2.66-0.36c9.59,1.32,18.7,4.71,27.71,8.11c2.3,0.87,5.66,0.19,7.71-1.01
		c2.07-1.21,4.05-3.59,4.6-5.98c0.58-2.56,0.46-5.43-1.01-7.71C931.36,57.22,929.42,55.89,926.86,54.93L926.86,54.93z"/>
</g>
<g>
	<path d="M509.36,76.88c-0.24,16.2-0.97,32.39-2.01,48.56c-1.04,16.28-2.37,32.53-3.75,48.78c-0.8,9.37-1.61,18.74-2.4,28.11
		c0.12,0.89,0.24,1.77,0.36,2.66c0.31,1.3,0.91,2.43,1.79,3.4c1.28,1.65,3.1,3.11,5.19,3.58c1.76,0.4,3.56,0.4,5.32,0
		c2.65-0.6,4.44-2.53,5.98-4.6c0.64-0.87,1.06-2.13,1.33-3.21c0.31-1.24,0.41-2.57,0.56-3.83c0.14-1.28,0.09-2.36-0.09-3.65
		c-0.53-3.95-3.25-7.34-7.21-8.43c-5.15-1.41-11.06,1.79-12.35,7.07c-0.55,2.25-0.68,4.68-0.88,7c0.12,0.89,0.24,1.77,0.36,2.66
		c0.34,0.8,0.67,1.59,1.01,2.39c1.1,1.88,2.8,3.25,4.78,4.09c1.7,0.72,3.35,0.93,5.18,0.68c2.03-0.27,4.38-1.12,5.74-2.75
		c4.78-5.69,9.48-11.54,13.79-17.6c0.72-1.02,1.47-2.04,2.02-3.17c0.92-1.87,1.54-3.46,1.53-5.59c-0.01-5.6-4.66-10.13-10.21-10.17
		c-6.2-0.05-10.43,5.18-13.89,9.63c-1.63,2.1-3.26,4.21-4.79,6.38c-2.27,3.21-4.62,6.82-5.16,10.79c-0.12,0.89-0.24,1.77-0.36,2.66
		c-0.05,1.38,0.24,2.66,0.86,3.85c0.81,1.92,2.2,3.78,4.09,4.78c1.57,0.83,3.27,1.29,5.05,1.37c2.36,0.11,5.48-1.16,7.07-2.93
		c16.86-18.74,33.16-37.97,49.26-57.36c16.05-19.33,31.9-38.83,47.95-58.16c9.22-11.1,18.5-22.16,27.91-33.09
		c-5.69-2.36-11.38-4.71-17.07-7.07c-0.21,3.77-0.11,7.55-0.62,11.3c0.12-0.89,0.24-1.77,0.36-2.66c-0.24,1.65-0.59,3.27-1.22,4.82
		c0.34-0.8,0.67-1.59,1.01-2.39c-0.35,0.8-0.72,1.64-1.21,2.36c0.52-0.67,1.04-1.35,1.56-2.02c-0.04,0.04-0.08,0.08-0.12,0.12
		c1.47-0.86,2.94-1.71,4.41-2.57c-0.04,0.02-0.09,0.04-0.13,0.05c1.77,0,3.54,0,5.32,0c-0.05-0.01-0.09-0.01-0.14-0.02
		c0.8,0.34,1.59,0.67,2.39,1.01c-0.05-0.03-0.11-0.07-0.16-0.1c0.67,0.52,1.35,1.04,2.02,1.56c-0.15-0.14-0.28-0.29-0.4-0.46
		c0.52,0.67,1.04,1.35,1.56,2.02c-0.27-0.38-0.5-0.76-0.68-1.19c0.34,0.8,0.67,1.59,1.01,2.39c-0.21-0.55-0.34-1.11-0.42-1.7
		c0.12,0.89,0.24,1.77,0.36,2.66c-0.11-1.05-0.06-2.09,0.08-3.14c-0.12,0.89-0.24,1.77-0.36,2.66c0.33-2.24,1.02-4.4,1.88-6.48
		c-0.34,0.8-0.67,1.59-1.01,2.39c0.78-1.84,1.68-3.66,2.89-5.26c-0.52,0.67-1.04,1.35-1.56,2.02c0.08-0.1,0.16-0.21,0.25-0.31
		c-5.69-2.36-11.38-4.71-17.07-7.07c-1.5,24.85-3,49.69-4.5,74.54c-0.42,6.96-0.84,13.91-1.26,20.87c-0.15,2.47,1.22,5.36,2.93,7.07
		c1.73,1.73,4.58,3.04,7.07,2.93c5.69-0.25,9.66-4.4,10-10c1.5-24.85,3-49.69,4.5-74.54c0.42-6.96,0.84-13.91,1.26-20.87
		c0.1-1.62-0.55-3.66-1.37-5.05c-1.1-1.88-2.8-3.25-4.78-4.09c-1.7-0.72-3.35-0.93-5.18-0.68c-2,0.27-4.41,1.12-5.74,2.75
		c-2.66,3.26-4.33,6.52-5.89,10.43c-1.35,3.39-2.27,7.23-2.2,10.89c0.06,2.86,0.66,5.37,1.94,7.91c0.63,1.26,1.57,2.46,2.55,3.45
		c2.5,2.54,6.74,3.78,10.16,2.64c6.57-2.19,8.88-9.39,9.72-15.62c0.57-4.21,0.56-8.4,0.8-12.63c0.09-1.63-0.55-3.66-1.37-5.05
		c-1.1-1.88-2.8-3.25-4.78-4.09c-1.7-0.72-3.35-0.93-5.18-0.68c-2.05,0.27-4.35,1.13-5.74,2.75
		c-16.64,19.33-32.85,39.01-49.04,58.71c-15.95,19.41-31.88,38.84-48.17,57.97c-9.17,10.76-18.45,21.43-27.91,31.94
		c5.57,3.24,11.14,6.49,16.71,9.73c0.13-0.96,0.38-1.85,0.74-2.75c-0.34,0.8-0.67,1.59-1.01,2.39c1.52-3.54,4.14-6.75,6.48-9.8
		c-0.52,0.67-1.04,1.35-1.56,2.02c1.69-2.18,3.43-4.52,5.6-6.26c-0.67,0.52-1.35,1.04-2.02,1.56c0.26-0.2,0.53-0.39,0.83-0.53
		c-0.8,0.34-1.59,0.67-2.39,1.01c0.13-0.05,0.25-0.09,0.38-0.11c-0.89,0.12-1.77,0.24-2.66,0.36c0.05-0.01,0.11-0.01,0.16,0
		c-0.89-0.12-1.77-0.24-2.66-0.36c0.05,0.01,0.1,0.02,0.14,0.04c-0.8-0.34-1.59-0.67-2.39-1.01c0.01,0,0.02,0.01,0.02,0.01
		c-0.67-0.52-1.35-1.04-2.02-1.56c0.01,0.01,0.01,0.01,0.02,0.02c-0.52-0.67-1.04-1.35-1.56-2.02c0,0.01,0.01,0.02,0.01,0.03
		c-0.34-0.8-0.67-1.59-1.01-2.39c0,0.01,0.01,0.02,0.01,0.03c-0.12-0.89-0.24-1.77-0.36-2.66c0,0.04,0,0.08,0,0.12
		c0.12-0.89,0.24-1.77,0.36-2.66c-0.02,0.1-0.05,0.2-0.09,0.3c0.34-0.8,0.67-1.59,1.01-2.39c-0.49,1.16-1.3,2.22-2.03,3.24
		c-1.19,1.68-2.44,3.32-3.7,4.95c0.52-0.67,1.04-1.35,1.56-2.02c-2.8,3.62-5.64,7.21-8.58,10.71c5.69,2.36,11.38,4.71,17.07,7.07
		c0.1-1.15,0.2-2.3,0.35-3.44c-0.12,0.89-0.24,1.77-0.36,2.66c0.04-0.31,0.07-0.65,0.19-0.94c-0.34,0.8-0.67,1.59-1.01,2.39
		c0.01-0.01,0.01-0.02,0.02-0.03c-1.2,1.2-2.39,2.39-3.59,3.59c0.01,0,0.01-0.01,0.02-0.01c-2.57,0.34-5.14,0.67-7.71,1.01
		c0,0,0.01,0,0.01,0.01c-1.99-1.53-3.98-3.06-5.98-4.6c0,0.01,0.01,0.01,0.01,0.02c-0.34-0.8-0.67-1.59-1.01-2.39
		c0.01,0.03,0.02,0.06,0.02,0.09c-0.12-0.89-0.24-1.77-0.36-2.66c0.1,0.84-0.02,1.74-0.12,2.57c0.12-0.89,0.24-1.77,0.36-2.66
		c-0.07,0.51-0.16,1.03-0.36,1.51c0.34-0.8,0.67-1.59,1.01-2.39c-0.04,0.08-0.08,0.15-0.14,0.23c6.21,1.68,12.42,3.36,18.63,5.05
		c1.39-16.44,2.85-32.86,4.15-49.31c1.29-16.18,2.42-32.37,3.16-48.58c0.42-9.18,0.71-18.38,0.85-27.57c0.08-5.23-4.65-10.24-10-10
		C513.87,67.12,509.44,71.27,509.36,76.88L509.36,76.88z"/>
</g>
<g>
	<path d="M628.02,202.92c3.85,0,7.89-1.67,10.61-4.39c2.6-2.6,4.56-6.87,4.39-10.61c-0.17-3.88-1.45-7.9-4.39-10.61
		c-2.93-2.69-6.54-4.39-10.61-4.39c-3.85,0-7.89,1.67-10.61,4.39c-2.6,2.6-4.56,6.87-4.39,10.61c0.17,3.88,1.45,7.9,4.39,10.61
		C620.35,201.22,623.96,202.92,628.02,202.92L628.02,202.92z"/>
</g>
<text transform="matrix(1.0112 0 0 1 65.7395 326.9912)" font-family="'MyriadPro-Bold'" font-size="45.8202px">T</text>
<text transform="matrix(1.0112 0 0 1 139.8704 326.9912)" font-family="'MyriadPro-Bold'" font-size="45.8202px">E</text>
<text transform="matrix(1.0112 0 0 1 213.3528 326.9912)" font-family="'MyriadPro-Bold'" font-size="45.8202px">C</text>
<text transform="matrix(1.0112 0 0 1 289.6614 326.9912)" font-family="'MyriadPro-Bold'" font-size="45.8202px">H</text>
<text transform="matrix(1.0112 0 0 1 370.3245 326.9912)" font-family="'MyriadPro-Bold'" font-size="45.8202px">N</text>
<text transform="matrix(1.0112 0 0 1 451.0344 326.9912)" font-family="'MyriadPro-Bold'" font-size="45.8202px">O</text>
<text transform="matrix(1.0112 0 0 1 532.9954 326.9912)" font-family="'MyriadPro-Bold'" font-size="45.8202px">L</text>
<text transform="matrix(1.0112 0 0 1 603.6516 326.9912)" font-family="'MyriadPro-Bold'" font-size="45.8202px">O</text>
<text transform="matrix(1.0112 0 0 1 685.6125 326.9912)" font-family="'MyriadPro-Bold'" font-size="45.8202px">G</text>
<text transform="matrix(1.0112 0 0 1 765.9524 326.9912)" font-family="'MyriadPro-Bold'" font-size="45.8202px">I</text>
<text transform="matrix(1.0112 0 0 1 827.8977 326.9912)" font-family="'MyriadPro-Bold'" font-size="45.8202px">E</text>
<text transform="matrix(1.0112 0 0 1 901.3801 326.9912)" font-family="'MyriadPro-Bold'" font-size="45.8202px">S</text>
<rect x="27.22" y="251.77" fill="none" stroke="#000000" stroke-width="14" stroke-miterlimit="10" width="938.29" height="114.19"/>
</svg>
